<?xml version="1.0" encoding="UTF-8" standalone="no"?>
<!-- Created with Inkscape (http://www.inkscape.org/) -->

<svg
   xmlns:dc="http://purl.org/dc/elements/1.1/"
   xmlns:cc="http://creativecommons.org/ns#"
   xmlns:rdf="http://www.w3.org/1999/02/22-rdf-syntax-ns#"
   xmlns:svg="http://www.w3.org/2000/svg"
   xmlns="http://www.w3.org/2000/svg"
   xmlns:sodipodi="http://sodipodi.sourceforge.net/DTD/sodipodi-0.dtd"
   xmlns:inkscape="http://www.inkscape.org/namespaces/inkscape"
   width="210mm"
   height="297mm"
   viewBox="0 0 210 297"
   version="1.1"
   id="svg878"
   inkscape:version="0.92.2 (5c3e80d, 2017-08-06)"
   sodipodi:docname="posters.svg">
  <defs
     id="defs872" />
  <sodipodi:namedview
     id="base"
     pagecolor="#ffffff"
     bordercolor="#666666"
     borderopacity="1.0"
     inkscape:pageopacity="0.0"
     inkscape:pageshadow="2"
     inkscape:zoom="0.49497475"
     inkscape:cx="696.87276"
     inkscape:cy="532.84251"
     inkscape:document-units="mm"
     inkscape:current-layer="layer1"
     showgrid="false"
     inkscape:lockguides="true"
     inkscape:measure-start="0,0"
     inkscape:measure-end="0,0"
     objecttolerance="1"
     inkscape:window-width="1366"
     inkscape:window-height="705"
     inkscape:window-x="-4"
     inkscape:window-y="-4"
     inkscape:window-maximized="1" />
  <metadata
     id="metadata875">
    <rdf:RDF>
      <cc:Work
         rdf:about="">
        <dc:format>image/svg+xml</dc:format>
        <dc:type
           rdf:resource="http://purl.org/dc/dcmitype/StillImage" />
        <dc:title></dc:title>
      </cc:Work>
    </rdf:RDF>
  </metadata>
  <g
     inkscape:label="Layer 1"
     inkscape:groupmode="layer"
     id="layer1">
    <rect
       style="fill:#800000;fill-opacity:1;stroke:none;stroke-width:0.70555556;stroke-linecap:round;stroke-linejoin:round;stroke-miterlimit:4;stroke-dasharray:none;stroke-opacity:1;paint-order:fill markers stroke"
       id="rect5380"
       width="145.14285"
       height="86.178574"
       x="-4.1577382"
       y="99.696426"
       inkscape:export-xdpi="96"
       inkscape:export-ydpi="96" />
    <rect
       style="fill:#f2f2f2;fill-opacity:1;stroke:none;stroke-width:0.70555556;stroke-linecap:round;stroke-linejoin:round;stroke-miterlimit:4;stroke-dasharray:none;stroke-opacity:1;paint-order:fill markers stroke"
       id="rect5319"
       width="121.34036"
       height="86.595329"
       x="111.18412"
       y="-0.20371471"
       inkscape:export-xdpi="96"
       inkscape:export-ydpi="96" />
    <rect
       style="fill:#3e4837;fill-opacity:1;stroke:none;stroke-width:0.70555556;stroke-linecap:round;stroke-linejoin:round;stroke-miterlimit:4;stroke-dasharray:none;stroke-opacity:1;paint-order:fill markers stroke"
       id="rect5255"
       width="85.044647"
       height="98.273804"
       x="6.0476193"
       y="-9.5386906"
       ry="0"
       inkscape:export-xdpi="96"
       inkscape:export-ydpi="96" />
    <g
       id="g5210"
       style="stroke:#447821"
       inkscape:export-xdpi="96"
       inkscape:export-ydpi="96">
      <path
         inkscape:connector-curvature="0"
         id="path1436"
         d="M 17.197916,10.305059 45.924107,26.747023"
         style="fill:none;stroke:#447821;stroke-width:0.70555556;stroke-linecap:butt;stroke-linejoin:miter;stroke-opacity:1;stroke-miterlimit:4;stroke-dasharray:none;fill-opacity:1" />
      <path
         inkscape:connector-curvature="0"
         id="path1438"
         d="M 77.296131,16.730654 45.924107,26.747023 16.630952,48.291666"
         style="fill:none;stroke:#447821;stroke-width:0.70555556;stroke-linecap:butt;stroke-linejoin:miter;stroke-opacity:1;stroke-miterlimit:4;stroke-dasharray:none;fill-opacity:1" />
      <path
         inkscape:connector-curvature="0"
         id="path1440"
         d="M 45.924107,26.747023 59.531249,50.181546"
         style="fill:none;stroke:#447821;stroke-width:0.70555556;stroke-linecap:butt;stroke-linejoin:miter;stroke-opacity:1;stroke-miterlimit:4;stroke-dasharray:none;fill-opacity:1" />
      <path
         inkscape:connector-curvature="0"
         id="path1442"
         d="m 16.630952,48.291665 42.900297,1.889881"
         style="fill:none;stroke:#447821;stroke-width:0.70555556;stroke-linecap:butt;stroke-linejoin:miter;stroke-opacity:1;stroke-miterlimit:4;stroke-dasharray:none;fill-opacity:1" />
      <path
         style="fill:none;fill-opacity:1;stroke:#447821;stroke-width:0.70555556;stroke-linecap:butt;stroke-linejoin:miter;stroke-miterlimit:4;stroke-dasharray:none;stroke-opacity:1"
         d="M 30.529008,72.200133 73.16195,78.925187"
         id="path5212"
         inkscape:connector-curvature="0" />
      <path
         inkscape:connector-curvature="0"
         id="path5214"
         d="M 73.16195,78.925187 79.843688,42.309262"
         style="fill:none;fill-opacity:1;stroke:#447821;stroke-width:0.70555556;stroke-linecap:butt;stroke-linejoin:miter;stroke-miterlimit:4;stroke-dasharray:none;stroke-opacity:1"
         sodipodi:nodetypes="cc" />
      <path
         sodipodi:nodetypes="cc"
         style="fill:none;fill-opacity:1;stroke:#447821;stroke-width:0.70555556;stroke-linecap:butt;stroke-linejoin:miter;stroke-miterlimit:4;stroke-dasharray:none;stroke-opacity:1"
         d="M 73.16195,78.925187 59.531249,50.181546"
         id="path5216"
         inkscape:connector-curvature="0" />
      <path
         inkscape:connector-curvature="0"
         id="path5218"
         d="M 49.642232,3.8224497 77.296131,16.730654"
         style="fill:none;fill-opacity:1;stroke:#447821;stroke-width:0.70555556;stroke-linecap:butt;stroke-linejoin:miter;stroke-miterlimit:4;stroke-dasharray:none;stroke-opacity:1"
         sodipodi:nodetypes="cc" />
    </g>
    <g
       id="g5204"
       style="fill:#bec8b7;fill-opacity:1"
       inkscape:export-xdpi="96"
       inkscape:export-ydpi="96">
      <circle
         r="4.2522321"
         cy="10.588541"
         cx="15.591516"
         id="path1426"
         style="fill:#bec8b7;fill-opacity:1;stroke:none;stroke-width:1.76400006;stroke-linecap:round;stroke-linejoin:round;stroke-miterlimit:4;stroke-dasharray:none;stroke-opacity:1;paint-order:fill markers stroke" />
      <circle
         style="fill:#bec8b7;fill-opacity:1;stroke:none;stroke-width:1.76400006;stroke-linecap:round;stroke-linejoin:round;stroke-miterlimit:4;stroke-dasharray:none;stroke-opacity:1;paint-order:fill markers stroke"
         id="circle1428"
         cx="46.207588"
         cy="26.841516"
         r="4.2522321" />
      <circle
         r="7.5595236"
         cy="48.10268"
         cx="16.441963"
         id="circle1430"
         style="fill:#bec8b7;fill-opacity:1;stroke:none;stroke-width:1.76400006;stroke-linecap:round;stroke-linejoin:round;stroke-miterlimit:4;stroke-dasharray:none;stroke-opacity:1;paint-order:fill markers stroke" />
      <circle
         style="fill:#bec8b7;fill-opacity:1;stroke:none;stroke-width:1.76400006;stroke-linecap:round;stroke-linejoin:round;stroke-miterlimit:4;stroke-dasharray:none;stroke-opacity:1;paint-order:fill markers stroke"
         id="circle1432"
         cx="79.658478"
         cy="16.82515"
         r="10.29985" />
      <circle
         r="3.0238087"
         cy="50.559525"
         cx="59.531246"
         id="circle1434"
         style="fill:#bec8b7;fill-opacity:1;stroke:none;stroke-width:1.76400018;stroke-linecap:round;stroke-linejoin:round;stroke-miterlimit:4;stroke-dasharray:none;stroke-opacity:1;paint-order:fill markers stroke" />
      <circle
         r="6.1231189"
         cy="78.424538"
         cx="73.469078"
         id="circle5187"
         style="fill:#bec8b7;fill-opacity:1;stroke:none;stroke-width:1.76400006;stroke-linecap:round;stroke-linejoin:round;stroke-miterlimit:4;stroke-dasharray:none;stroke-opacity:1;paint-order:fill markers stroke" />
      <circle
         style="fill:#bec8b7;fill-opacity:1;stroke:none;stroke-width:1.76400006;stroke-linecap:round;stroke-linejoin:round;stroke-miterlimit:4;stroke-dasharray:none;stroke-opacity:1;paint-order:fill markers stroke"
         id="circle5189"
         cx="30.973223"
         cy="72.277336"
         r="1.8468064" />
      <circle
         r="3.3167887"
         cy="42.209515"
         cx="79.482635"
         id="circle5191"
         style="fill:#bec8b7;fill-opacity:1;stroke:none;stroke-width:1.76400006;stroke-linecap:round;stroke-linejoin:round;stroke-miterlimit:4;stroke-dasharray:none;stroke-opacity:1;paint-order:fill markers stroke" />
      <circle
         style="fill:#bec8b7;fill-opacity:1;stroke:none;stroke-width:1.76400006;stroke-linecap:round;stroke-linejoin:round;stroke-miterlimit:4;stroke-dasharray:none;stroke-opacity:1;paint-order:fill markers stroke"
         id="circle5193"
         cx="49.41481"
         cy="4.6581459"
         r="6.1231184" />
    </g>
    <g
       id="g5253"
       transform="translate(5.2977477,-49.007095)"
       inkscape:export-xdpi="96"
       inkscape:export-ydpi="96">
      <path
         id="path5167"
         d="m 64.761711,97.161354 c -8.84692,0.561425 -10.91716,5.711276 -10.91716,5.711276 -13.90805,-7.840637 -21.14497,0.13333 -21.14497,0.13333 0,0 -2.06973,-5.149855 -10.91664,-5.711279 0,0 -4.2472,10.619709 4.18062,14.884879 0,0 -2.5775,4.94825 1.83245,12.4318 4.40994,7.48355 10.95803,10.95798 22.98515,7.61711 12.02713,-3.34087 9.79941,-20.18275 9.79941,-20.18275 8.42782,-4.26518 4.18114,-14.884366 4.18114,-14.884366 z"
         style="fill:#5aa02c;fill-opacity:1;stroke:none;stroke-width:0.26458332px;stroke-linecap:butt;stroke-linejoin:miter;stroke-opacity:1"
         inkscape:connector-curvature="0" />
      <g
         transform="translate(-79.646319,8.0180858)"
         style="fill:#bec8b7"
         id="g5244">
        <path
           style="fill:#bec8b7;fill-opacity:1;stroke:none;stroke-width:0.26458332px;stroke-linecap:butt;stroke-linejoin:miter;stroke-opacity:1"
           d="m 136.40869,103.76413 c -3.92001,-9.621702 -11.40366,4.00904 -11.40366,4.00904 14.07639,5.61266 11.40366,-4.00904 11.40366,-4.00904 z"
           id="path5145"
           inkscape:connector-curvature="0"
           sodipodi:nodetypes="cc" />
        <path
           sodipodi:nodetypes="cc"
           inkscape:connector-curvature="0"
           id="path5149"
           d="m 109.70586,103.76413 c 3.92001,-9.621702 11.40366,4.00904 11.40366,4.00904 -14.07639,5.61266 -11.40366,-4.00904 -11.40366,-4.00904 z"
           style="fill:#bec8b7;fill-opacity:1;stroke:none;stroke-width:0.26458332px;stroke-linecap:butt;stroke-linejoin:miter;stroke-opacity:1" />
        <path
           style="fill:#bec8b7;fill-opacity:1;stroke:none;stroke-width:0.26458332px;stroke-linecap:butt;stroke-linejoin:miter;stroke-opacity:1"
           d="m 123.74579,110.44587 c 0,0 -3.20723,-0.66818 -3.0736,1.06908 0.13364,1.73725 1.50339,0.0501 1.5535,0.68488 0.0744,0.942 0.18934,2.23837 0.76841,2.23838 0.56794,0 -0.1452,-2.41983 0.7851,-2.3219 1.58691,0.16704 0.90203,-1.80408 -0.0334,-1.67044 z"
           id="path5155"
           inkscape:connector-curvature="0"
           sodipodi:nodetypes="ccsssc" />
      </g>
      <path
         sodipodi:nodetypes="sccss"
         inkscape:connector-curvature="0"
         id="path5147"
         d="m 52.493241,108.95535 c -1.25168,0.12065 -3.07364,0.4178 -2.98284,3.10531 0.0902,2.68493 3.16534,4.53463 2.97059,5.27116 0,0 0.39863,-1.62217 1.64029,-3.56698 1.24167,-1.9448 -0.35388,-4.93229 -1.62804,-4.80949 z"
         style="fill:#3e4837;fill-opacity:1;stroke:none;stroke-width:0.26458332px;stroke-linecap:butt;stroke-linejoin:miter;stroke-opacity:1" />
      <path
         style="fill:#3e4837;fill-opacity:1;stroke:none;stroke-width:0.26458332px;stroke-linecap:butt;stroke-linejoin:miter;stroke-opacity:1"
         d="m 34.586181,108.95535 c -1.25168,0.12065 -3.07363,0.4178 -2.98283,3.10531 0.0902,2.68493 3.16533,4.53463 2.97058,5.27116 0,0 0.39864,-1.62217 1.6403,-3.56698 1.24166,-1.9448 -0.35389,-4.93229 -1.62805,-4.80949 z"
         id="path5153"
         inkscape:connector-curvature="0"
         sodipodi:nodetypes="sccss" />
    </g>
    <g
       id="g5176"
       transform="translate(11.125612,-7.0282433)"
       style="fill:#000000"
       inkscape:export-xdpi="96"
       inkscape:export-ydpi="96">
      <path
         inkscape:connector-curvature="0"
         id="path5170"
         d="m 28.0633,25.988698 c 0,0 -0.668173,-10.824415 10.156243,-6.815373 10.824416,4.009043 10.022607,11.759859 5.34539,13.898016 -4.677217,2.138156 -8.285355,1.202713 -7.483547,5.87993 0.801809,4.677217 0,9.087162 -2.004521,6.681737 -2.004522,-2.405425 -2.80633,-11.759858 -0.534539,-11.893494 2.271791,-0.133633 11.22532,-2.939965 8.686259,-6.280833 -2.53906,-3.340869 -7.216277,-9.755338 -10.423511,-6.147199 -3.207235,3.608138 -0.26727,5.211755 -2.004522,5.746294 C 28.0633,27.592315 28.0633,25.988698 28.0633,25.988698 Z"
         style="fill:#000000;stroke:none;stroke-width:0.26458332px;stroke-linecap:butt;stroke-linejoin:miter;stroke-opacity:1" />
      <path
         inkscape:connector-curvature="0"
         id="path5172"
         d="m 36.615925,48.172068 c 0,0 -2.939965,-2.539058 -3.207234,1.06908 -0.267269,3.608137 3.073598,2.672694 3.741772,1.737252 0.668176,-0.935445 -0.534538,-2.806332 -0.534538,-2.806332 z"
         style="fill:#000000;fill-opacity:1;stroke:none;stroke-width:0.26458332px;stroke-linecap:butt;stroke-linejoin:miter;stroke-opacity:1" />
    </g>
    <g
       id="g5330"
       transform="translate(1.5720615)"
       inkscape:export-xdpi="96"
       inkscape:export-ydpi="96">
      <path
         inkscape:connector-curvature="0"
         id="rect5257"
         d="m 129.94725,23.767753 v 4.594551 h 1.33635 v 13.202295 l -2.56677,4.427638 -7.51995,12.971817 v 5.078243 h 30.00023 v -5.078243 h -0.0264 l -7.45381,-12.949081 -2.60604,-4.52737 V 28.362304 h 1.33635 v -4.594551 z"
         style="fill:#b3b3b3;fill-opacity:1;stroke:none;stroke-width:0.70555556;stroke-linecap:round;stroke-linejoin:round;stroke-miterlimit:4;stroke-dasharray:none;stroke-opacity:1;paint-order:fill markers stroke" />
      <path
         id="rect5268"
         transform="scale(0.26458333)"
         d="m 496.18945,146.71289 v 10.38086 l -9.70117,16.73437 -28.42187,49.02735 v 19.19336 h 113.38671 v -19.19336 h -0.0996 l -28.17188,-48.94141 -9.84961,-17.11133 v -10.08984 z"
         style="fill:#0000ff;fill-opacity:1;stroke:none;stroke-width:2.66666675;stroke-linecap:round;stroke-linejoin:round;stroke-miterlimit:4;stroke-dasharray:none;stroke-opacity:1;paint-order:fill markers stroke"
         inkscape:connector-curvature="0" />
      <path
         style="fill:#b3b3b3;fill-opacity:1;stroke:none;stroke-width:0.70555556;stroke-linecap:round;stroke-linejoin:round;stroke-miterlimit:4;stroke-dasharray:none;stroke-opacity:1;paint-order:fill markers stroke"
         d="m 165.666,23.767753 v 4.594551 h 1.33635 v 13.202295 l -2.56677,4.427638 -7.51995,12.971817 v 5.078243 h 30.00023 v -5.078243 h -0.0264 l -7.45381,-12.949081 -2.60604,-4.52737 V 28.362304 h 1.33635 v -4.594551 z"
         id="path5274"
         inkscape:connector-curvature="0" />
      <path
         inkscape:connector-curvature="0"
         style="fill:#0000ff;fill-opacity:1;stroke:none;stroke-width:0.70555556;stroke-linecap:round;stroke-linejoin:round;stroke-miterlimit:4;stroke-dasharray:none;stroke-opacity:1;paint-order:fill markers stroke"
         d="m 167.00221,38.817785 v 2.746602 l -2.56677,4.427636 -7.51995,12.971819 v 5.078243 h 30.00023 v -5.078243 h -0.0263 l -7.45381,-12.949081 -2.60605,-4.527373 v -2.669603 z"
         id="path5276" />
      <path
         inkscape:connector-curvature="0"
         id="path5278"
         d="m 200.43981,23.767753 v 4.594551 h 1.33635 v 13.202295 l -2.56677,4.427638 -7.51995,12.971817 v 5.078243 h 30.00023 v -5.078243 h -0.0264 l -7.45381,-12.949081 -2.60604,-4.52737 V 28.362304 h 1.33635 v -4.594551 z"
         style="fill:#b3b3b3;fill-opacity:1;stroke:none;stroke-width:0.70555556;stroke-linecap:round;stroke-linejoin:round;stroke-miterlimit:4;stroke-dasharray:none;stroke-opacity:1;paint-order:fill markers stroke" />
      <path
         id="path5280"
         d="m 201.77602,38.817785 v 2.746602 l -2.56677,4.427636 -7.51995,12.971819 v 5.078243 h 30.00023 v -5.078243 h -0.0263 l -7.45381,-12.949081 -2.60605,-4.527373 v -2.669603 z"
         style="fill:#0000ff;fill-opacity:1;stroke:none;stroke-width:0.70555556;stroke-linecap:round;stroke-linejoin:round;stroke-miterlimit:4;stroke-dasharray:none;stroke-opacity:1;paint-order:fill markers stroke"
         inkscape:connector-curvature="0" />
      <path
         inkscape:connector-curvature="0"
         id="rect5284"
         d="m 130.02658,15.776746 -3.57291,6.188253 -3.48713,0.54777 -4.09173,0.642338 3.17965,1.417485 3.17965,1.417484 h 20.97805 v -0.02429 l 0.0108,0.02429 3.17965,-1.417484 3.17965,-1.417485 -4.09174,-0.642338 -3.24321,-0.50953 -3.59462,-6.226493 -0.88056,1.525488 h -9.86503 z"
         style="fill:#ff0000;fill-opacity:1;stroke:none;stroke-width:0.70555556;stroke-linecap:round;stroke-linejoin:round;stroke-miterlimit:4;stroke-dasharray:none;stroke-opacity:1;paint-order:fill markers stroke" />
      <path
         sodipodi:nodetypes="ccccccc"
         inkscape:connector-curvature="0"
         id="path5297"
         d="m 172.38882,12.62513 c -4.17303,0.0051 -7.61939,3.260935 -7.86153,7.426937 -4.2805,0.466738 -7.10471,1.631337 -7.10551,2.930053 0.007,1.547515 3.99437,2.862944 9.3958,3.099553 3.99347,-0.156225 9.44383,0.05177 11.65051,-0.551146 1.12747,-1.363659 1.80496,-3.113015 1.805,-5.020607 1.9e-4,-4.354525 -3.52974,-7.884692 -7.88427,-7.88479 z"
         style="fill:#ffff00;fill-opacity:1;stroke:none;stroke-width:0.70555556;stroke-linecap:round;stroke-linejoin:round;stroke-miterlimit:4;stroke-dasharray:none;stroke-opacity:1;paint-order:fill markers stroke" />
      <path
         inkscape:connector-curvature="0"
         id="rect5308"
         d="m 206.53249,4.740769 a 5.9999998,2.5390603 0 0 0 -5.78156,1.8706868 h -0.21859 V 7.2796321 21.651364 a 10.356693,2.5390603 0 0 0 -4.35633,2.065507 10.356693,2.5390603 0 0 0 10.35648,2.538863 10.356693,2.5390603 0 0 0 10.35647,-2.538863 10.356693,2.5390603 0 0 0 -4.35632,-2.067057 V 7.2796321 6.6114558 h -0.21291 A 5.9999998,2.5390603 0 0 0 206.53249,4.740769 Z"
         style="fill:#00ff00;fill-opacity:1;stroke:none;stroke-width:0.70555556;stroke-linecap:round;stroke-linejoin:round;stroke-miterlimit:4;stroke-dasharray:none;stroke-opacity:1;paint-order:fill markers stroke" />
    </g>
    <text
       xml:space="preserve"
       style="font-style:normal;font-weight:normal;font-size:16.59036255px;line-height:1.25;font-family:sans-serif;letter-spacing:0px;word-spacing:0px;fill:#000000;fill-opacity:1;stroke:none;stroke-width:0.26458332"
       x="113.50095"
       y="86.604599"
       id="text5317"
       transform="scale(1.0600834,0.94332201)"
       inkscape:export-xdpi="96"
       inkscape:export-ydpi="96"><tspan
         sodipodi:role="line"
         id="tspan5315"
         x="113.50095"
         y="86.604599"
         style="font-style:normal;font-variant:normal;font-weight:normal;font-stretch:normal;font-family:'BellBottom.Laser';-inkscape-font-specification:'BellBottom.Laser';stroke-width:0.26458332">Hats Required</tspan></text>
    <rect
       style="fill:#c87137;fill-opacity:1;stroke:none;stroke-width:0.70555556;stroke-linecap:round;stroke-linejoin:round;stroke-miterlimit:4;stroke-dasharray:none;stroke-opacity:1;paint-order:fill markers stroke"
       id="rect5332"
       width="28.33057"
       height="40.357697"
       x="-57.920994"
       y="120.82203"
       transform="rotate(-30)"
       inkscape:export-xdpi="96"
       inkscape:export-ydpi="96" />
    <rect
       transform="rotate(-21.689378)"
       y="130.97186"
       x="-33.544727"
       height="31.134075"
       width="21.855711"
       id="rect5334"
       style="fill:#e6e6e6;fill-opacity:1;stroke:none;stroke-width:0.70555556;stroke-linecap:round;stroke-linejoin:round;stroke-miterlimit:4;stroke-dasharray:none;stroke-opacity:1;paint-order:fill markers stroke"
       inkscape:export-xdpi="96"
       inkscape:export-ydpi="96" />
    <rect
       style="fill:#666666;fill-opacity:1;stroke:none;stroke-width:0.70555556;stroke-linecap:round;stroke-linejoin:round;stroke-miterlimit:4;stroke-dasharray:none;stroke-opacity:1;paint-order:fill markers stroke"
       id="rect5336"
       width="8.0180855"
       height="4.8108511"
       x="-58.050743"
       y="117.61592"
       transform="rotate(-35.362463)"
       inkscape:export-xdpi="96"
       inkscape:export-ydpi="96" />
    <text
       xml:space="preserve"
       style="font-style:normal;font-variant:normal;font-weight:normal;font-stretch:normal;font-size:25.36997986px;line-height:1.25;font-family:LilyUPC;-inkscape-font-specification:LilyUPC;letter-spacing:0px;word-spacing:0px;fill:#ffcc00;fill-opacity:1;stroke:none;stroke-width:0.26458332;"
       x="0.64657581"
       y="117.02651"
       id="text5340"
       inkscape:export-xdpi="96"
       inkscape:export-ydpi="96"><tspan
         sodipodi:role="line"
         id="tspan5338"
         x="0.64657581"
         y="117.02651"
         style="stroke-width:0.26458332;fill:#ffcc00;fill-opacity:1;">It's Only Science</tspan><tspan
         sodipodi:role="line"
         x="0.64657581"
         y="148.73898"
         style="stroke-width:0.26458332;fill:#ffcc00;fill-opacity:1;"
         id="tspan5342" /><tspan
         sodipodi:role="line"
         x="0.64657581"
         y="180.45146"
         style="stroke-width:0.26458332;fill:#ffcc00;fill-opacity:1;"
         id="tspan5344">If You Take Notes!</tspan></text>
    <g
       id="g5378"
       transform="matrix(0.33166832,1.237803,-1.237803,0.33166832,248.39408,152.30677)"
       style="stroke-width:0.78035504"
       inkscape:export-xdpi="96"
       inkscape:export-ydpi="96">
      <ellipse
         transform="scale(-1,1)"
         ry="2.7395127"
         rx="2.75"
         cy="93.407433"
         cx="41.215836"
         id="path5361"
         style="fill:#666666;fill-opacity:1;stroke:none;stroke-width:0.55058384;stroke-linecap:round;stroke-linejoin:round;stroke-miterlimit:4;stroke-dasharray:none;stroke-opacity:1;paint-order:fill markers stroke" />
      <rect
         style="fill:#666666;fill-opacity:1;stroke:none;stroke-width:0.5505839;stroke-linecap:round;stroke-linejoin:round;stroke-miterlimit:4;stroke-dasharray:none;stroke-opacity:1;paint-order:fill markers stroke"
         id="rect5367"
         width="5.5"
         height="28.597839"
         x="38.465836"
         y="123.14117"
         transform="scale(-1,1)" />
      <rect
         transform="scale(-1,1)"
         y="93.206985"
         x="38.465836"
         height="31.537804"
         width="5.5"
         id="rect5357"
         style="fill:#666666;fill-opacity:1;stroke:none;stroke-width:0.55058384;stroke-linecap:round;stroke-linejoin:round;stroke-miterlimit:4;stroke-dasharray:none;stroke-opacity:1;paint-order:fill markers stroke" />
      <rect
         y="92.538811"
         x="-42.763123"
         height="23.252449"
         width="1.0690781"
         id="rect5359"
         style="fill:#ffcc00;fill-opacity:1;stroke:none;stroke-width:0.55058384;stroke-linecap:round;stroke-linejoin:round;stroke-miterlimit:4;stroke-dasharray:none;stroke-opacity:1;paint-order:fill markers stroke" />
      <rect
         style="fill:#ffcc00;fill-opacity:1;stroke:none;stroke-width:0.55058384;stroke-linecap:round;stroke-linejoin:round;stroke-miterlimit:4;stroke-dasharray:none;stroke-opacity:1;paint-order:fill markers stroke"
         id="rect5363"
         width="5.5"
         height="0.93544281"
         x="38.465836"
         y="93.206985"
         transform="scale(-1,1)" />
      <rect
         transform="scale(-1,1)"
         y="121.80483"
         x="37.664028"
         height="3.3408685"
         width="7.1036172"
         id="rect5365"
         style="fill:#ffcc00;fill-opacity:1;stroke:none;stroke-width:0.55058384;stroke-linecap:round;stroke-linejoin:round;stroke-miterlimit:4;stroke-dasharray:none;stroke-opacity:1;paint-order:fill markers stroke" />
      <path
         transform="matrix(0.4946121,0,0,0.95836942,-22.576379,18.216383)"
         inkscape:transform-center-y="1.5381857"
         d="m -37.685001,148.67098 -5.559913,-9.63005 11.119825,0 z"
         inkscape:randomized="0"
         inkscape:rounded="0"
         inkscape:flatsided="true"
         sodipodi:arg2="2.6179939"
         sodipodi:arg1="1.5707963"
         sodipodi:r2="3.2100172"
         sodipodi:r1="6.4200339"
         sodipodi:cy="142.25095"
         sodipodi:cx="-37.685001"
         sodipodi:sides="3"
         id="path5369"
         style="fill:#ffcc00;fill-opacity:1;stroke:none;stroke-width:0.79969543;stroke-linecap:round;stroke-linejoin:round;stroke-miterlimit:4;stroke-dasharray:none;stroke-opacity:1;paint-order:fill markers stroke"
         sodipodi:type="star" />
    </g>
    <rect
       style="fill:#ececec;fill-opacity:1;stroke:none;stroke-width:0.70555556;stroke-linecap:round;stroke-linejoin:round;stroke-miterlimit:4;stroke-dasharray:none;stroke-opacity:1;paint-order:fill markers stroke"
       id="rect5382"
       width="116"
       height="70"
       x="12.160763"
       y="-290.31824"
       transform="scale(1,-1)"
       inkscape:export-xdpi="96"
       inkscape:export-ydpi="96" />
    <path
       style="fill:none;stroke:#000000;stroke-width:0.26458332px;stroke-linecap:butt;stroke-linejoin:miter;stroke-opacity:1"
       d="M 12.160765,283.34524 H 128.16076"
       id="path5384"
       inkscape:connector-curvature="0"
       inkscape:export-xdpi="96"
       inkscape:export-ydpi="96" />
    <path
       inkscape:connector-curvature="0"
       id="path5386"
       d="M 12.160765,277.68399 H 128.16076"
       style="fill:none;stroke:#000000;stroke-width:0.26458332px;stroke-linecap:butt;stroke-linejoin:miter;stroke-opacity:1"
       inkscape:export-xdpi="96"
       inkscape:export-ydpi="96" />
    <path
       style="fill:none;stroke:#000000;stroke-width:0.26458332px;stroke-linecap:butt;stroke-linejoin:miter;stroke-opacity:1"
       d="M 12.160765,272.02274 H 128.16076"
       id="path5388"
       inkscape:connector-curvature="0"
       inkscape:export-xdpi="96"
       inkscape:export-ydpi="96" />
    <path
       inkscape:connector-curvature="0"
       id="path5390"
       d="M 12.160765,266.36148 H 128.16076"
       style="fill:none;stroke:#000000;stroke-width:0.26458332px;stroke-linecap:butt;stroke-linejoin:miter;stroke-opacity:1"
       inkscape:export-xdpi="96"
       inkscape:export-ydpi="96" />
    <path
       style="fill:none;stroke:#000000;stroke-width:0.26458332px;stroke-linecap:butt;stroke-linejoin:miter;stroke-opacity:1"
       d="M 12.160765,260.70023 H 128.16076"
       id="path5392"
       inkscape:connector-curvature="0"
       inkscape:export-xdpi="96"
       inkscape:export-ydpi="96" />
    <path
       inkscape:connector-curvature="0"
       id="path5394"
       d="M 12.160765,249.37772 H 128.16076"
       style="fill:none;stroke:#000000;stroke-width:0.26458332px;stroke-linecap:butt;stroke-linejoin:miter;stroke-opacity:1"
       inkscape:export-xdpi="96"
       inkscape:export-ydpi="96" />
    <path
       style="fill:none;stroke:#000000;stroke-width:0.26458332px;stroke-linecap:butt;stroke-linejoin:miter;stroke-opacity:1"
       d="M 12.160765,255.03897 H 128.16076"
       id="path5396"
       inkscape:connector-curvature="0"
       inkscape:export-xdpi="96"
       inkscape:export-ydpi="96" />
    <path
       inkscape:connector-curvature="0"
       id="path5398"
       d="M 12.160765,243.71646 H 128.16076"
       style="fill:none;stroke:#000000;stroke-width:0.26458332px;stroke-linecap:butt;stroke-linejoin:miter;stroke-opacity:1"
       inkscape:export-xdpi="96"
       inkscape:export-ydpi="96" />
    <path
       style="fill:none;stroke:#000000;stroke-width:0.26458332px;stroke-linecap:butt;stroke-linejoin:miter;stroke-opacity:1"
       d="M 12.160765,232.39395 H 128.16076"
       id="path5400"
       inkscape:connector-curvature="0"
       inkscape:export-xdpi="96"
       inkscape:export-ydpi="96" />
    <path
       inkscape:connector-curvature="0"
       id="path5402"
       d="M 12.160765,238.05521 H 128.16076"
       style="fill:none;stroke:#000000;stroke-width:0.26458332px;stroke-linecap:butt;stroke-linejoin:miter;stroke-opacity:1"
       inkscape:export-xdpi="96"
       inkscape:export-ydpi="96" />
    <path
       style="fill:none;stroke:#000000;stroke-width:0.26458332px;stroke-linecap:butt;stroke-linejoin:miter;stroke-opacity:1"
       d="M 12.160765,226.7327 H 128.16076"
       id="path5404"
       inkscape:connector-curvature="0"
       inkscape:export-xdpi="96"
       inkscape:export-ydpi="96" />
    <path
       inkscape:connector-curvature="0"
       id="path5406"
       d="M 12.160765,289.00649 H 128.16076"
       style="fill:none;stroke:#000000;stroke-width:0.26458332px;stroke-linecap:butt;stroke-linejoin:miter;stroke-opacity:1"
       inkscape:export-xdpi="96"
       inkscape:export-ydpi="96" />
    <path
       style="fill:none;stroke:#ff8080;stroke-width:0.26458332px;stroke-linecap:butt;stroke-linejoin:miter;stroke-opacity:1"
       d="m 19.646822,290.31825 v -70"
       id="path5408"
       inkscape:connector-curvature="0"
       inkscape:export-xdpi="96"
       inkscape:export-ydpi="96" />
    <text
       xml:space="preserve"
       style="font-style:normal;font-variant:normal;font-weight:normal;font-stretch:normal;font-size:6.29552698px;line-height:1.25;font-family:LilyUPC;-inkscape-font-specification:LilyUPC;letter-spacing:0px;word-spacing:0px;fill:#000000;fill-opacity:1;stroke:none;stroke-width:0.26458332"
       x="26.017981"
       y="232.23677"
       id="text5412"
       inkscape:export-xdpi="96"
       inkscape:export-ydpi="96"><tspan
         sodipodi:role="line"
         id="tspan5410"
         x="26.017981"
         y="232.23677"
         style="font-style:normal;font-variant:normal;font-weight:normal;font-stretch:normal;font-family:'MV Boli';-inkscape-font-specification:'MV Boli';stroke-width:0.26458332">Steve stop being a twat and</tspan><tspan
         sodipodi:role="line"
         x="26.017981"
         y="240.50366"
         style="font-style:normal;font-variant:normal;font-weight:normal;font-stretch:normal;font-family:'MV Boli';-inkscape-font-specification:'MV Boli';stroke-width:0.26458332"
         id="tspan5414" /><tspan
         sodipodi:role="line"
         x="26.017981"
         y="248.37306"
         style="stroke-width:0.26458332"
         id="tspan5416" /></text>
    <text
       id="text5424"
       y="229.29681"
       x="28.156147"
       style="font-style:normal;font-variant:normal;font-weight:normal;font-stretch:normal;font-size:6.29552698px;line-height:1.25;font-family:LilyUPC;-inkscape-font-specification:LilyUPC;letter-spacing:0px;word-spacing:0px;fill:#000000;fill-opacity:1;stroke:none;stroke-width:0.26458332"
       xml:space="preserve"
       inkscape:export-xdpi="96"
       inkscape:export-ydpi="96"><tspan
         style="font-style:normal;font-variant:normal;font-weight:normal;font-stretch:normal;font-family:'MV Boli';-inkscape-font-specification:'MV Boli';stroke-width:0.26458332"
         y="235.26414"
         x="28.156147"
         id="tspan5418"
         sodipodi:role="line" /><tspan
         id="tspan5420"
         style="font-style:normal;font-variant:normal;font-weight:normal;font-stretch:normal;font-family:'MV Boli';-inkscape-font-specification:'MV Boli';stroke-width:0.26458332"
         y="243.13354"
         x="28.156147"
         sodipodi:role="line">give me my boglin back</tspan><tspan
         id="tspan5422"
         style="stroke-width:0.26458332"
         y="251.40044"
         x="28.156147"
         sodipodi:role="line" /></text>
    <g
       id="g5473"
       transform="translate(2.6726948,5.3453907)"
       style="stroke:#0000ff"
       inkscape:export-xdpi="96"
       inkscape:export-ydpi="96">
      <path
         inkscape:connector-curvature="0"
         id="path5426"
         d="m 47.573975,263.59131 c 0,0.44544 0,0.89089 0,1.33635 0,0.0891 -0.06299,0.20426 0,0.26725 0.01074,0.0109 0.970928,0 1.069078,0 0.445449,0 0.890899,0 1.336349,0 0.08909,0 0.204272,0.063 0.267269,0 0.125992,-0.12599 -0.125992,-0.40854 0,-0.53453 0.063,-0.063 0.204274,0.063 0.267269,0 0.063,-0.063 -0.063,-0.20427 0,-0.26727 0.063,-0.063 0.204274,0.063 0.267269,0 0.125992,-0.12599 -0.125992,-0.40854 0,-0.53453 0.063,-0.063 0.204274,0.063 0.267271,0 0.063,-0.063 -0.063,-0.20428 0,-0.26727 0.063,-0.063 0.267269,-0.0891 0.267269,0 0,0.37863 -1.247259,-0.75727 0.267269,0 0.07968,0.0398 0,0.17817 0,0.26727 0,0.35635 0,0.71271 0,1.06908 0,1.06907 0,2.13815 0,3.20722 0,0.1859 0.04833,1.23971 0,1.33636 -0.05635,0.11269 -0.210923,0.15457 -0.267269,0.26726 -0.03984,0.0797 0,0.17819 0,0.26728 -0.08909,0.0891 -0.210923,0.15457 -0.267269,0.26726 -0.05298,0.10596 0.05464,0.74718 0,0.80182 -0.0086,0.008 -0.736989,0 -0.801809,0 -0.139761,0 -0.998802,0.0351 -1.069078,0 -0.225383,-0.11269 -0.309158,-0.42186 -0.53454,-0.53454 -0.07969,-0.0399 -0.204272,0.063 -0.267269,0 -0.063,-0.063 0.03984,-0.18759 0,-0.26728 -0.05635,-0.11269 -0.178179,-0.17817 -0.267269,-0.26726 -0.08909,-0.0891 -0.15458,-0.21093 -0.267269,-0.26728 -0.07968,-0.0399 -0.204274,0.063 -0.267271,0 -0.06299,-0.063 0.063,-0.20426 0,-0.26726 -0.06299,-0.063 -0.204272,0.063 -0.267269,0 -0.063,-0.063 0.063,-0.20428 0,-0.26728 -0.063,-0.063 -0.204275,0.063 -0.267269,0 -0.063,-0.063 0.06299,-0.20426 0,-0.26726 -0.35636,-0.35636 -0.267269,0.44546 -0.267269,-0.26728"
         style="fill:none;stroke:#0000ff;stroke-width:0.26458332px;stroke-linecap:butt;stroke-linejoin:miter;stroke-opacity:1" />
      <path
         inkscape:connector-curvature="0"
         id="path5428"
         d="m 55.324792,264.39311 c -0.943477,-0.59959 -1.007673,-0.53453 -1.870887,-0.53453 -0.08909,0 -0.178181,0 -0.267269,0 -0.08909,0 -0.204274,-0.063 -0.267271,0 -0.063,0.063 0,0.17817 0,0.26726 0,0.18945 -0.03455,1.53453 0,1.60361 0.05635,0.11271 0.15458,0.21093 0.267271,0.26728 0.08134,0.0407 0.68144,0 0.801807,0 0.185899,0 1.239694,0.0483 1.336349,0 0.112689,-0.0564 0.178179,-0.17817 0.267269,-0.26728 0.08909,-0.0891 0.291978,-0.14372 0.267269,-0.26725 -0.07814,-0.39069 -0.356359,-0.71274 -0.534538,-1.06909 z"
         style="fill:none;stroke:#0000ff;stroke-width:0.26458332px;stroke-linecap:butt;stroke-linejoin:miter;stroke-opacity:1" />
      <path
         inkscape:connector-curvature="0"
         id="path5430"
         d="m 58.264755,263.85858 c 0,0.62362 0,1.24725 0,1.87087 0,0.0891 -0.063,0.20429 0,0.26728 0.063,0.063 0.204274,-0.063 0.267271,0 0.063,0.063 -0.063,0.20426 0,0.26726 0.063,0.063 0.178179,0 0.267269,0 0.08909,0 0.178181,0 0.267269,0 0.08909,0 0.178181,0 0.267272,0 0.08909,0 0.187584,0.0399 0.267269,0 1.112311,-0.55615 -0.285721,0.0185 0.267268,-0.53454 0.063,-0.063 0.204275,0.063 0.267269,0 0.01212,-0.0122 0,-1.21032 0,-1.33634 0,-0.26727 0,-0.53453 0,-0.8018 0,-0.0891 -0.08909,-0.26727 0,-0.26727 0.08909,0 0,0.17818 0,0.26727 0,0.26727 0,0.53453 0,0.8018 0,0.71272 -0.08909,-0.0891 0.267272,0.26727 0.05464,0.0546 -0.05299,0.69585 0,0.80182 0.05634,0.11268 0.210923,0.15457 0.267269,0.26725 0.03984,0.0797 -0.063,0.20429 0,0.26728 0.125992,0.126 0.408545,-0.12599 0.534537,0 0.063,0.063 -0.06299,0.20426 0,0.26726 0.063,0.063 0.178181,0 0.267272,0 0.623628,0 1.247256,0 1.870884,0 0.08909,0 0.178181,0 0.267272,0 0.08909,0 0.204271,0.063 0.267269,0 0.01212,-0.0122 0,-1.21031 0,-1.33633 0,-0.0891 0.06299,-0.20429 0,-0.26728 -0.063,-0.063 -0.204274,0.063 -0.267269,0 -0.063,-0.063 -0.063,-0.20427 0,-0.26727 0.063,-0.063 0.178178,0 0.267269,0 0.08909,0 0.187584,-0.0398 0.267269,0 0.112691,0.0564 0.178181,0.17818 0.267268,0.26727 0.08909,0.0891 0.210926,0.15459 0.267272,0.26728 0.03984,0.0797 -0.063,0.20426 0,0.26725 0.063,0.063 0.204271,-0.063 0.267269,0 0.06299,0.063 -0.03984,0.18759 0,0.26729 0.05635,0.11268 0.210923,0.15457 0.267269,0.26725 0,0.71274 -0.08909,-0.0891 0.267268,0.26728 0.063,0.063 0,0.35637 0,0.26726 0,-0.44543 0,-0.89088 0,-1.33633 0,-0.0891 -0.06299,-0.20429 0,-0.26728 0.063,-0.063 0.204275,0.063 0.267272,0 0.063,-0.063 0,-0.17818 0,-0.26727 0,-0.0891 0,-0.17818 0,-0.26727 0,-0.53453 0,-1.06907 0,-1.60361 0,-0.0891 -0.063,-0.20428 0,-0.26727 0.063,-0.063 0.204272,0.063 0.267269,0 0.06299,-0.063 -0.063,-0.20427 0,-0.26727 0.06299,-0.063 0.178178,0 0.267269,0 0.44545,0 0.890899,0 1.336347,0 0.08909,0 0.204274,-0.063 0.267271,0 0.063,0.063 -0.063,0.20427 0,0.26727 0.01074,0.0108 0.970926,0 1.069078,0"
         style="fill:none;stroke:#0000ff;stroke-width:0.26458332px;stroke-linecap:butt;stroke-linejoin:miter;stroke-opacity:1" />
      <path
         inkscape:connector-curvature="0"
         id="path5432"
         d="m 74.300928,263.59131 c -0.299691,0.82689 -0.267268,1.57193 -0.267268,2.40542 0,0.0891 0.06299,0.20426 0,0.26726 -0.413526,0.41354 -0.267272,-0.71382 -0.267272,-0.80179 0,-0.1782 -0.05635,-0.3655 0,-0.53454 0.151715,-0.45515 0.53454,-0.85659 0.53454,-1.33635 0,-0.56346 -0.379745,-1.06185 -0.53454,-1.60362 -0.02447,-0.0857 0,-0.17818 0,-0.26727 0,-0.17818 0,-0.35636 0,-0.53454 0,-0.0891 -0.063,-0.20427 0,-0.26727 0.063,-0.063 0.178181,0 0.267272,0 0.08909,0 0.178178,0 0.267268,0 0.08909,0 0.187585,-0.0398 0.267269,0 0.112692,0.0564 0.154578,0.21093 0.267269,0.26727 0.07968,0.0398 0.187587,-0.0398 0.267272,0 0.112688,0.0563 0.178178,0.17818 0.267268,0.26727 0.267269,0.26727 0.534538,0.53454 0.80181,0.80181 0.08909,0.0891 0.162435,0.19738 0.267268,0.26727 0.165754,0.1105 0.393677,0.1264 0.534538,0.26727 0.063,0.063 -0.03984,0.18758 0,0.26727 0.556157,1.11231 -0.01844,-0.28572 0.534541,0.26727 0.125991,0.12599 -0.125992,0.40854 0,0.53454 0.06299,0.063 0.187584,-0.0399 0.267268,0 0.112692,0.0563 0.210924,0.15457 0.267269,0.26726 0.03984,0.0797 -0.06299,0.20428 0,0.26727 0.063,0.063 0.204274,0.063 0.267272,0 0.06299,-0.063 0,-0.17818 0,-0.26727 0,-0.53453 0,-1.06907 0,-1.60361 0,-0.0891 0,-0.17818 0,-0.26727 0,-0.0891 -0.063,-0.20427 0,-0.26727 0.03769,-0.0377 0.746982,-0.0274 0.801806,0 0.112692,0.0563 0.15458,0.21092 0.267272,0.26727 0.07968,0.0398 0.204271,-0.063 0.267269,0 0.06299,0.063 -0.063,0.20427 0,0.26727 0.06299,0.063 0.187584,-0.0399 0.267268,0 0.112692,0.0563 0.178181,0.17818 0.267269,0.26727 0.08909,0.0891 0.210926,0.15457 0.267272,0.26727 0.03984,0.0797 -0.063,0.20427 0,0.26727 0.125992,0.12599 0.408546,-0.126 0.534538,0 0.063,0.063 0,0.17818 0,0.26727 0,0.0891 0,0.17817 0,0.26727 0,0.0981 0.01077,1.05831 0,1.06908 -0.063,0.063 -0.178179,0 -0.267269,0"
         style="fill:none;stroke:#0000ff;stroke-width:0.26458332px;stroke-linecap:butt;stroke-linejoin:miter;stroke-opacity:1" />
      <path
         inkscape:connector-curvature="0"
         id="path5434"
         d="m 83.120822,262.7895 c 0,0.97998 0,1.95996 0,2.93995 0,0.1782 0,0.35637 0,0.53454 0,0.0891 -0.063,0.20428 0,0.26728 0.063,0.063 0.187584,-0.0398 0.267268,0 0.445577,0.22278 0.120764,0.53454 0.80181,0.53454 0.08909,0 0.187587,0.0399 0.267269,0 0.590949,-0.29549 0.08294,-0.16587 0.267271,-0.53454 0.05635,-0.11268 0.210923,-0.15457 0.267269,-0.26728 0.07968,-0.15936 -0.125992,-0.40854 0,-0.53454 0.063,-0.063 0.227428,0.0797 0.267269,0 0.119528,-0.23905 0,-0.53454 0,-0.80179 0,-0.53455 0,-1.06908 0,-1.60362 0,-0.0982 0.01077,-1.05833 0,-1.06908 -0.063,-0.063 -0.204274,0.063 -0.267269,0 -0.063,-0.063 0.063,-0.33027 0,-0.26727 -0.367242,0.36724 -0.267269,0.88293 -0.267269,1.33635 0,0.35635 0,0.71271 0,1.06907 0,0.0891 0,0.17818 0,0.26727 0,0.0891 -0.03984,0.18759 0,0.26728 0.112689,0.22537 0.421846,0.30914 0.534538,0.53454 0.03984,0.0797 -0.063,0.20425 0,0.26725 0.063,0.063 0.187587,-0.0398 0.267269,0 0.112691,0.0564 0.15458,0.21093 0.267271,0.26728 0.07968,0.0399 0.187584,-0.0398 0.267269,0 0.112691,0.0563 0.154577,0.21093 0.267269,0.26726 0.08134,0.0407 0.681442,0 0.801809,0 0.06482,0 0.793213,0.009 0.801809,0 0.125992,-0.12597 -0.125992,-0.40854 0,-0.53454 0.063,-0.063 0.204272,0.063 0.267269,0 0.063,-0.063 0,-0.17817 0,-0.26725 0,-0.0648 0.0086,-0.79322 0,-0.80182 -0.063,-0.063 -0.178181,0 -0.267269,0 -0.08909,0 -0.204274,-0.063 -0.267271,0 -0.06299,0.063 0,0.17819 0,0.26728 0,0.35634 0,0.71271 0,1.06907 0,0.0891 0.08909,0.26726 0,0.26726 -0.08909,0 0,-0.17817 0,-0.26726 0,-0.0891 0,-0.17817 0,-0.26728 0,-0.0891 -0.03984,-0.18756 0,-0.26725 0.05635,-0.11269 0.227428,-0.14775 0.267271,-0.26729 0.05635,-0.16901 0,-0.35634 0,-0.53453 0,-0.44545 0,-0.8909 0,-1.33634 0,-0.0891 0,-0.17818 0,-0.26727 0,-0.0891 -0.063,-0.20428 0,-0.26727 0.063,-0.063 0.204272,-0.063 0.267269,0 0.063,0.063 -0.063,0.20427 0,0.26727 0.063,0.063 0.227428,-0.0797 0.267269,0 0.07968,0.15937 -0.05635,0.3655 0,0.53454 0.03984,0.11952 0.210926,0.15457 0.267271,0.26727 0.07249,0.14498 -0.07313,0.99595 0,1.06908 0.445448,0.44545 0.267269,-0.97999 0.267269,0.53454 0,0.0629 -0.09957,0.90138 0.267269,0.53453 0.063,-0.063 0,-0.17817 0,-0.26728 0,-0.0891 0,-0.17817 0,-0.26725 0,-0.62363 0,-1.24727 0,-1.87089 0,-0.0891 -0.063,-0.20428 0,-0.26727 0.063,-0.063 0.204274,0.063 0.267269,0 0.02673,-0.0267 -0.124725,-0.92654 0.267271,-0.53454 0.063,0.063 -0.063,0.20427 0,0.26727 0.063,0.063 0.204272,-0.063 0.267269,0 0.125992,0.12599 -0.05634,0.3655 0,0.53454 0.063,0.18898 0.204274,0.34555 0.267269,0.53453 0.02817,0.0845 -0.03984,0.18759 0,0.26727 0.05635,0.11269 0.210923,0.15458 0.267269,0.26727 0.03984,0.0797 -0.03984,0.18759 0,0.26728 0.05635,0.11268 0.210926,0.15457 0.267271,0.26725 0.07968,0.15939 -0.125994,0.40855 0,0.53454 0.01077,0.0109 0.970926,0 1.069079,0"
         style="fill:none;stroke:#0000ff;stroke-width:0.26458332px;stroke-linecap:butt;stroke-linejoin:miter;stroke-opacity:1" />
      <path
         inkscape:connector-curvature="0"
         id="path5436"
         d="m 95.949758,258.51319 c -0.01328,0.62277 -1.081233,0.55884 -1.336347,1.06907 -0.03984,0.0797 0.063,0.20428 0,0.26727 -0.06299,0.063 -0.204274,-0.063 -0.267269,0 -0.133635,0.13364 0.133634,0.66818 0,0.80181 -0.063,0.063 -0.178181,0 -0.267268,0"
         style="fill:none;stroke:#0000ff;stroke-width:0.26458332px;stroke-linecap:butt;stroke-linejoin:miter;stroke-opacity:1" />
      <path
         inkscape:connector-curvature="0"
         id="path5438"
         d="m 98.889724,263.59131 c -0.44545,-0.17818 -0.890898,-0.35636 -1.336347,-0.53454 -0.08909,-0.0891 -0.154581,-0.21093 -0.267269,-0.26727 -0.07968,-0.0399 -0.182753,0.0282 -0.267272,0 -1.04086,-0.34696 -0.025,-0.26727 -1.069078,-0.26727 -0.623628,0 -1.247256,0 -1.870884,0 -0.08909,0 -0.227428,-0.0797 -0.267272,0 -0.07968,0.15937 0.05635,0.3655 0,0.53454 -0.03984,0.11952 -0.210923,0.15458 -0.267269,0.26727 -0.01492,0.0298 -0.01492,1.30652 0,1.33634 0.05635,0.11268 0.15458,0.21092 0.267269,0.26728 0.07969,0.0398 0.187587,-0.0399 0.267272,0 0.815054,0.40751 -0.488823,0.21188 0.801806,0.53454 0.387104,0.0968 1.216906,-0.0773 1.603619,0 0.195341,0.0391 0.339195,0.2282 0.534537,0.26725 2.038903,0 -0.210836,-0.11951 1.33635,0.26728 0.172857,0.0432 0.356359,0 0.534538,0 0.445449,0 0.890899,0 1.336346,0 0.0891,0 0.17818,0 0.26727,0 0.0891,0 0.20427,-0.063 0.26727,0 0.0267,0.0267 0.0267,0.77507 0,0.8018 -0.12599,0.12599 -0.40855,-0.12597 -0.53454,0 -0.063,0.063 0.0398,0.18759 0,0.26728 -0.0563,0.11269 -0.21092,0.15457 -0.267268,0.26728 -0.03984,0.0797 0.063,0.20426 0,0.26726 -0.125992,0.12599 -0.408546,-0.126 -0.534538,0 -0.063,0.063 0.06299,0.20428 0,0.26728 -0.063,0.063 -0.178181,0 -0.267272,0 -0.08909,0 -0.178178,0 -0.267268,0 -0.80181,0 -1.603616,0 -2.405425,0 -0.08909,0 -0.187585,0.0398 -0.267269,0 -0.320726,-0.16036 -0.481087,-0.64146 -0.801809,-0.80182 -0.07968,-0.0399 -0.204275,0.063 -0.267269,0 -0.35636,-0.35637 0.445447,-0.26728 -0.267272,-0.26728"
         style="fill:none;stroke:#0000ff;stroke-width:0.26458332px;stroke-linecap:butt;stroke-linejoin:miter;stroke-opacity:1" />
      <path
         inkscape:connector-curvature="0"
         id="path5440"
         d="m 79.111778,273.21301 c -0.356359,-0.35637 -0.675544,-0.75425 -1.069078,-1.06908 -0.06957,-0.0556 -0.178178,0 -0.267269,0 -0.08909,0 -0.178178,0 -0.267268,0 -0.185897,0 -1.239695,-0.0483 -1.336347,0 -0.112692,0.0564 -0.210926,0.15457 -0.267272,0.26728 -0.02995,0.0599 0,1.00555 0,1.06908 0,0.12036 -0.04067,0.72046 0,0.80179 0.05635,0.11269 0.210926,0.1546 0.267272,0.26728 0.03984,0.0797 0,0.17817 0,0.26726 0,0.1782 -0.05635,0.36552 0,0.53454 0.07968,0.23905 0.421846,0.30916 0.534537,0.53453 0.03984,0.0797 -0.03984,0.18759 0,0.26729 0.05635,0.11268 0.178181,0.17817 0.267269,0.26725 0.08909,0.0891 0.15458,0.21093 0.267272,0.26728 0.07028,0.0351 0.929317,0 1.069078,0 0.238863,0 1.251175,0.0426 1.336347,0 0.112691,-0.0563 0.178178,-0.17817 0.267268,-0.26728 0.305798,-0.30578 0.372732,-0.31639 0.534541,-0.80179 0.02817,-0.0845 -0.02817,-0.18275 0,-0.26728 0.346953,-1.04085 0.267269,-0.0251 0.267269,-1.06908 0,-0.35637 0,-0.71271 0,-1.06907 0,-0.0891 0,-0.17817 0,-0.26726 0,-0.0891 -0.08909,-0.26728 0,-0.26728 0.08909,0 0,0.17817 0,0.26728 0,0.2775 -0.05657,0.8428 0,1.06908 0.06833,0.27331 0.19894,0.52847 0.267269,0.80179 0.02162,0.0864 -0.02817,0.18275 0,0.26728 0.063,0.18899 0.218953,0.34126 0.267268,0.53454 0.04322,0.17285 -0.05634,0.36549 0,0.53454 0.07968,0.23905 0.394764,0.32488 0.534541,0.53453 0.110503,0.16577 0.156765,0.36878 0.267269,0.53454 0.06989,0.10483 0.210925,0.15457 0.267268,0.26726 0.03984,0.0797 -0.07968,0.22743 0,0.26728 0.113594,0.0568 1.112378,0 1.33635,0 0.08909,0 0.204272,0.063 0.267269,0 0.06299,-0.063 0,-0.17817 0,-0.26728"
         style="fill:none;stroke:#0000ff;stroke-width:0.26458332px;stroke-linecap:butt;stroke-linejoin:miter;stroke-opacity:1" />
      <path
         inkscape:connector-curvature="0"
         id="path5442"
         d="m 87.931674,270.27304 c 0,0.35636 -0.06989,0.71964 0,1.06907 0.02471,0.12356 0.227428,0.14774 0.267269,0.26728 0.05635,0.16905 0,0.35637 0,0.53454 0,0.61159 -0.05635,0.68911 0.267269,1.33636 0.339505,0.679 0.319434,-0.27374 0.53454,0.80179 0.08736,0.4368 -0.108037,0.90422 0,1.33636 0.179165,0.71665 0.801809,0.75967 0.801809,1.60361 0,0.35637 0,0.71271 0,1.06908 0,0.0891 0.08909,0.26728 0,0.26728 -0.08909,0 0,-0.1782 0,-0.26728 0,-0.0891 0,-0.17817 0,-0.26726 0,-0.44545 0,-0.8909 0,-1.33636 0,-0.17817 -0.04322,-0.36168 0,-0.53453 0.04832,-0.19328 0.204272,-0.34555 0.267269,-0.53454 0.02817,-0.0845 -0.02817,-0.18275 0,-0.26728 0.063,-0.18899 0.204274,-0.34555 0.267269,-0.53454 0.02817,-0.0845 -0.063,-0.20426 0,-0.26726 0.063,-0.063 0.178181,0 0.267269,0 0.08909,0 0.178181,0 0.267271,0 0.08909,0 0.178179,0 0.267269,0 0.08909,0 0.187585,-0.0398 0.267269,0 0.112691,0.0563 0.178181,0.17817 0.267269,0.26726 0.178181,0.1782 0.356359,0.35637 0.53454,0.53454 0.08909,0.0891 0.162439,0.19738 0.267269,0.26728 0.165754,0.11049 0.368787,0.15676 0.534541,0.26725 0.10483,0.0699 0.178178,0.1782 0.267268,0.26729 0.178179,0.17817 0.394764,0.32488 0.534538,0.53453 0.04942,0.0741 -0.03984,0.18759 0,0.26726 0.05635,0.11271 0.210926,0.1546 0.267272,0.26728 0.03984,0.0797 -0.03984,0.18759 0,0.26726 0.32,0.64003 0.534537,-0.16841 0.534537,0.53456 0,0.0891 0,0.17817 0,0.26726 0,0.0891 0.063,0.20428 0,0.26728 -0.06299,0.063 -0.178178,0 -0.267269,0 -0.08909,0 -0.178181,0 -0.267268,0 -0.120367,0 -0.720471,0.0407 -0.80181,0 -0.112691,-0.0564 -0.15458,-0.21093 -0.267268,-0.26728 -0.15937,-0.0797 -0.375172,0.0797 -0.534541,0 -0.112691,-0.0564 -0.154577,-0.21093 -0.267269,-0.26726 -0.07968,-0.0398 -0.204274,0.063 -0.267268,0 -0.063,-0.063 0,-0.17819 0,-0.26728"
         style="fill:none;stroke:#0000ff;stroke-width:0.26458332px;stroke-linecap:butt;stroke-linejoin:miter;stroke-opacity:1" />
      <path
         inkscape:connector-curvature="0"
         id="path5444"
         d="m 97.286108,275.88569 c -0.809212,-0.5444 -0.894742,-0.53453 -1.603619,-0.53453 -0.08909,0 -0.187584,-0.0399 -0.267268,0 -0.590947,0.29548 -0.08294,0.16589 -0.267269,0.53453 -0.05635,0.11272 -0.210926,0.1546 -0.267272,0.26729 -0.007,0.014 -0.007,0.78782 0,0.80179 0.185492,0.371 0.47556,0.26728 0.801809,0.26728 0.08909,0 0.187585,-0.0398 0.267269,0 0.112692,0.0564 0.15458,0.21093 0.267272,0.26726 0.09665,0.0483 1.15045,0 1.336347,0 0.08909,0 0.204274,0.063 0.267268,0 0.063,-0.063 -0.06299,-0.20426 0,-0.26726 0.063,-0.063 0.204275,0.063 0.267269,0 0.063,-0.063 -0.06299,-0.20428 0,-0.26728 0.063,-0.063 0.227428,0.0797 0.267272,0 0.07968,-0.15936 -0.05635,-0.3655 0,-0.53454 0.07968,-0.23905 0.421846,-0.30914 0.534538,-0.53454 0.04067,-0.0813 0,-0.68143 0,-0.80179 0,-0.0891 0.063,-0.20428 0,-0.26728 -0.063,-0.063 -0.187585,0.0399 -0.267269,0 -0.112692,-0.0563 -0.154581,-0.21093 -0.267269,-0.26726 -0.159369,-0.0797 -0.375171,0.0797 -0.534541,0 -0.112691,-0.0563 -0.154577,-0.21092 -0.267268,-0.26728 -0.08134,-0.0407 -0.681443,0 -0.80181,0"
         style="fill:none;stroke:#0000ff;stroke-width:0.26458332px;stroke-linecap:butt;stroke-linejoin:miter;stroke-opacity:1" />
      <path
         inkscape:connector-curvature="0"
         id="path5446"
         d="m 102.36423,275.0839 c -1.14876,-0.57438 -0.67066,-0.53454 -1.33635,-0.53454 -0.0891,0 -0.18758,-0.0398 -0.26727,0 -0.11269,0.0563 -0.17818,0.17817 -0.26727,0.26726 -0.0891,0.0891 -0.21092,0.1546 -0.26727,0.26728 -0.0466,0.0932 0,1.40743 0,1.60361 0,0.12036 -0.0407,0.72047 0,0.8018 0.20379,0.40759 0.70235,0.26728 1.06908,0.26728 0.0891,0 0.20427,0.063 0.26727,0 0.063,-0.063 -0.0398,-0.18759 0,-0.26728 0.0563,-0.11269 0.21092,-0.15457 0.26727,-0.26726 0.0398,-0.0797 -0.063,-0.20428 0,-0.26728 0.55299,-0.55298 -0.0216,0.84505 0.53454,-0.26726 0.0799,-0.15972 -0.17594,-0.53453 0.26727,-0.53453 0.0891,0 0,0.17817 0,0.26725 0,0.0891 0,0.1782 0,0.26728 0,0.35637 0,0.71271 0,1.06908 0,0.97999 0,1.95998 0,2.93997 0,0.19619 0.0466,1.51043 0,1.60361 -0.0564,0.11269 -0.22743,0.14775 -0.26727,0.26726 -0.0564,0.16904 0.0563,0.36552 0,0.53456 -0.0398,0.11952 -0.15458,0.2109 -0.26727,0.26726 -0.0703,0.0351 -0.92932,0 -1.06908,0 -0.0891,0 -0.20427,0.063 -0.26727,0 -0.063,-0.063 0.063,-0.20429 0,-0.26726 -0.14086,-0.14086 -0.39368,-0.12641 -0.53454,-0.26728 -0.063,-0.063 0.063,-0.20428 0,-0.26728 -0.14086,-0.14084 -0.393673,-0.12639 -0.534537,-0.26726 -0.063,-0.063 0.04942,-0.19314 0,-0.26728 -0.139777,-0.20965 -0.394764,-0.32485 -0.534541,-0.53454 -0.04942,-0.0741 0.04942,-0.19312 0,-0.26725 -0.139774,-0.20966 -0.383346,-0.33295 -0.534537,-0.53454 -0.346954,-0.4626 -0.267269,-0.54221 -0.267269,-1.06907 0,-0.0891 0.03984,-0.18759 0,-0.26729 -0.05635,-0.11268 -0.210926,-0.15457 -0.267272,-0.26725 -0.04067,-0.0814 0,-0.68146 0,-0.80182"
         style="fill:none;stroke:#0000ff;stroke-width:0.26458332px;stroke-linecap:butt;stroke-linejoin:miter;stroke-opacity:1" />
      <path
         inkscape:connector-curvature="0"
         id="path5448"
         d="m 105.03692,268.40217 c 0.34143,0.88019 0.26727,1.75776 0.26727,2.67269 0,0.17817 -0.0432,0.36168 0,0.53453 0.0483,0.19325 0.20428,0.34555 0.26727,0.53454 0.0282,0.0845 0,0.17817 0,0.26728 0,0.17817 0,0.35634 0,0.53454 0,0.44543 0,0.89088 0,1.33633 0,0.1782 -0.0349,0.35984 0,0.53454 0.0553,0.27625 0.19894,0.5285 0.26727,0.80182 0.0216,0.0864 -0.0398,0.18759 0,0.26725 0.0563,0.11272 0.22743,0.14775 0.26727,0.26729 0.0845,0.25355 0,0.53453 0,0.80179 0,0.44545 0,0.89091 0,1.33636"
         style="fill:none;stroke:#0000ff;stroke-width:0.26458332px;stroke-linecap:butt;stroke-linejoin:miter;stroke-opacity:1" />
      <path
         inkscape:connector-curvature="0"
         id="path5450"
         d="m 108.51143,275.61844 c 0,0.53454 0,1.06907 0,1.60361 0,0.0891 0.0891,0.26726 0,0.26726 -0.0891,0 0,-0.17817 0,-0.26726"
         style="fill:none;stroke:#0000ff;stroke-width:0.26458332px;stroke-linecap:butt;stroke-linejoin:miter;stroke-opacity:1" />
      <path
         inkscape:connector-curvature="0"
         id="path5452"
         d="m 107.97689,271.07486 1.87089,1.06907"
         style="fill:none;stroke:#0000ff;stroke-width:0.26458332px;stroke-linecap:butt;stroke-linejoin:miter;stroke-opacity:1" />
      <path
         inkscape:connector-curvature="0"
         id="path5454"
         d="m 111.71866,277.22205 c -0.17818,-0.35636 -0.38657,-0.69916 -0.53454,-1.06907 -0.0331,-0.0827 0,-0.17817 0,-0.26729 0,-0.17817 0,-0.35634 0,-0.53453 0,-0.44546 0,-0.89088 0,-1.33633 0,-0.0648 -0.009,-0.79322 0,-0.80182 0.009,-0.009 0.73699,0 0.80181,0 0.0891,0 0.20427,-0.063 0.26727,0 0.063,0.063 -0.063,0.20428 0,0.26728 0.063,0.063 0.20427,-0.063 0.26727,0 0.063,0.063 -0.063,0.20426 0,0.26725 0.063,0.063 0.20427,-0.063 0.26727,0 0.12599,0.126 -0.12599,0.40855 0,0.53454 0.55299,0.55301 -0.0216,-0.84502 0.53454,0.26728 0.0797,0.15936 -0.0797,0.37516 0,0.53454 0.0563,0.11269 0.21092,0.15457 0.26727,0.26726 0.1069,0.21383 -0.10691,0.58801 0,0.80182 0.0563,0.11268 0.21092,0.15457 0.26727,0.26725 0.053,0.10599 -0.0546,0.74719 0,0.80182 0.063,0.063 0.20427,-0.063 0.26727,0 0.0107,0.0108 0,0.97092 0,1.06908"
         style="fill:none;stroke:#0000ff;stroke-width:0.26458332px;stroke-linecap:butt;stroke-linejoin:miter;stroke-opacity:1" />
    </g>
    <rect
       style="fill:#e5ff80;fill-opacity:1;stroke:none;stroke-width:0.70555556;stroke-linecap:round;stroke-linejoin:round;stroke-miterlimit:4;stroke-dasharray:none;stroke-opacity:1;paint-order:fill markers stroke"
       id="rect5477"
       width="49.304592"
       height="49.304592"
       x="155.34822"
       y="156.43085"
       inkscape:export-xdpi="96"
       inkscape:export-ydpi="96" />
    <path
       style="fill:none;stroke:#000000;stroke-width:0.26458332px;stroke-linecap:butt;stroke-linejoin:miter;stroke-opacity:1"
       d="m 160.92336,169.33854 c 0,-0.40947 0,-0.81895 0,-1.22842 0,-0.0944 0.0202,-0.39163 0,-0.47247 -0.0241,-0.0966 -0.075,-0.18581 -0.0945,-0.28349 -0.0124,-0.0618 0,-0.12599 0,-0.18898 0,-0.18899 0,-0.37798 0,-0.56697 0,-0.063 0,-0.12599 0,-0.18898 0,-0.063 -0.0153,-0.12788 0,-0.18899 0.0103,-0.0414 0.25558,-0.52977 0.28348,-0.56697 0.0534,-0.0713 0.13553,-0.11772 0.18899,-0.18899 0.0423,-0.0563 0.0447,-0.13918 0.0945,-0.18899 0.0498,-0.0498 0.12859,-0.0583 0.18899,-0.0945 0.13478,-0.0809 0.31047,-0.22948 0.47247,-0.28348 0.0299,-0.01 0.0639,0.008 0.0945,0 0.0945,-0.0315 0.18899,-0.063 0.28349,-0.0945 0,-0.0315 -0.0223,-0.0722 0,-0.0945 0.0223,-0.0223 0.063,0 0.0945,0 0.15749,0 0.31498,0 0.47247,0 0.0315,0 0.063,0 0.0945,0 0.0315,0 0.0722,-0.0223 0.0945,0 0.0223,0.0223 -0.0141,0.0663 0,0.0945 0.0199,0.0398 0.063,0.063 0.0945,0.0945 0.0315,0.0945 0.0499,0.19439 0.0945,0.28348 0.10158,0.20316 0.2885,0.35819 0.37797,0.56697 0.0512,0.11936 0.0489,0.25637 0.0945,0.37797 0.0495,0.1319 0.13177,0.24926 0.18898,0.37798 0.0689,0.155 0.11314,0.32075 0.18899,0.47247 0.2925,0.58499 0.13274,-0.0615 0.37798,0.75595 0.0809,0.26956 0.0643,0.50652 0.18899,0.75595 0.0508,0.10158 0.13055,0.1861 0.18899,0.28349 0.0712,0.11863 0.16818,0.34765 0.18898,0.47246 0.0155,0.0932 0,0.18899 0,0.28349 0,0.15749 0,0.31498 0,0.47247"
       id="path5479"
       inkscape:connector-curvature="0"
       inkscape:export-xdpi="96"
       inkscape:export-ydpi="96" />
    <path
       style="fill:none;stroke:#000000;stroke-width:0.26458332px;stroke-linecap:butt;stroke-linejoin:miter;stroke-opacity:1"
       d="m 167.72693,166.31473 c -0.31349,0 -0.3407,-0.0564 -0.56696,0.0945 -0.0371,0.0247 -0.0522,0.0804 -0.0945,0.0945 -0.0598,0.0199 -0.12922,-0.0199 -0.18898,0 -0.0423,0.0141 -0.0547,0.0746 -0.0945,0.0945 -0.0282,0.0141 -0.0663,-0.0141 -0.0945,0 -0.39326,0.19663 0.10102,-0.007 -0.0945,0.18899 -0.0223,0.0223 -0.0722,-0.0223 -0.0945,0 -0.0133,0.0133 -0.01,0.2641 0,0.28348 0.0199,0.0398 0.0546,0.0746 0.0945,0.0945 0.0282,0.0141 0.063,0 0.0945,0 0.0315,0 0.063,0 0.0945,0 0.22049,0 0.44097,0 0.66146,0 0.25198,0 0.50397,0 0.75595,0 0.063,0 0.126,0 0.18899,0 0.063,0 0.12787,0.0153 0.18899,0 0.0683,-0.0171 0.12599,-0.063 0.18899,-0.0945 0.0945,-0.0315 0.18685,-0.0703 0.28348,-0.0945 0.0306,-0.008 0.0683,0.0175 0.0945,0 0.0741,-0.0494 0.10931,-0.14915 0.18899,-0.18899 0.0564,-0.0282 0.13657,0.0349 0.18899,0 0.0586,-0.0391 0.0554,-0.13039 0.0945,-0.18899 0.0247,-0.0371 0.0804,-0.0522 0.0945,-0.0945 0.0199,-0.0598 -0.0199,-0.12923 0,-0.18899 0.0141,-0.0423 0.0698,-0.0574 0.0945,-0.0945 0.0391,-0.0586 0.0554,-0.13039 0.0945,-0.18899 0.0247,-0.0371 0.0746,-0.0547 0.0945,-0.0945 0.0141,-0.0282 0,-0.063 0,-0.0945 0,-0.0374 0.0202,-0.43211 0,-0.47247 -0.0542,-0.10833 -0.19716,-0.13144 -0.28348,-0.18899 -0.0371,-0.0247 -0.0547,-0.0746 -0.0945,-0.0945 -0.0891,-0.0445 -0.19193,-0.0553 -0.28348,-0.0945 -0.12947,-0.0555 -0.24253,-0.15029 -0.37797,-0.18898 -0.0909,-0.026 -0.18994,0.0134 -0.28349,0 -0.12856,-0.0184 -0.2512,-0.0663 -0.37797,-0.0945 -0.15679,-0.0348 -0.31569,-0.0596 -0.47247,-0.0945 -0.12678,-0.0282 -0.24911,-0.0784 -0.37798,-0.0945 -0.12502,-0.0156 -0.25198,0 -0.37798,0 -0.37797,0 -0.75595,0 -1.13392,0 -0.23217,0 -0.75361,-0.049 -0.94494,0.0945 -0.0564,0.0423 -0.0447,0.13918 -0.0945,0.18899 -0.0223,0.0223 -0.0722,-0.0223 -0.0945,0 -0.19532,0.19531 -0.0557,0.12832 -0.0945,0.28348 -0.0315,0.0945 -0.063,0.18898 -0.0945,0.28348 0,0.0315 0.008,0.0639 0,0.0945 -0.0242,0.0966 -0.075,0.18581 -0.0945,0.28349 -0.0124,0.0618 0,0.12599 0,0.18898 0,0.38653 -0.0306,0.3808 0.0945,0.75595 0.0223,0.0668 0.0667,0.12426 0.0945,0.18899 0.0668,0.15591 0.11313,0.32076 0.18899,0.47247 0.0537,0.10731 0.42967,0.61866 0.47247,0.66146 0.0803,0.0803 0.19726,0.11508 0.28348,0.18899 0.83145,0.71267 -0.0669,0.0737 0.75596,0.66146 0.0924,0.066 0.18898,0.12599 0.28348,0.18899 0.15749,0.063 0.32863,0.0991 0.47247,0.18898 0.7243,0.45269 -0.24789,0.17133 0.75595,0.47248 0.15384,0.0462 0.3201,0.0437 0.47247,0.0945 0.13364,0.0445 0.24434,0.14444 0.37798,0.18899 0.15236,0.0508 0.31568,0.0597 0.47247,0.0945 0.12678,0.0282 0.24911,0.0784 0.37797,0.0945 0.12502,0.0156 0.25276,-0.0139 0.37798,0 0.15963,0.0177 0.31284,0.0768 0.47247,0.0945 0.12522,0.0139 0.25199,0 0.37798,0 0.12599,0 0.25198,0 0.37797,0 0.0945,0 0.18899,0 0.28349,0 0.0945,0 0.18993,0.0134 0.28348,0 0.12856,-0.0184 0.24941,-0.0761 0.37797,-0.0945 0.0935,-0.0134 0.19083,0.0185 0.28349,0 0.432,-0.0864 -0.0674,-0.10533 0.37797,-0.28349 0.0877,-0.0351 0.19897,0.0423 0.28348,0 0.063,-0.0315 0.0554,-0.13038 0.0945,-0.18898 0.0247,-0.0371 0.0698,-0.0574 0.0945,-0.0945 0.0391,-0.0586 0.063,-0.12599 0.0945,-0.18899 0.0315,-0.063 0.0722,-0.12217 0.0945,-0.18899 0.0199,-0.0598 0,-0.12599 0,-0.18898 0.59841,-0.59845 0.37794,-0.37798 0.66141,-0.66145 0.0315,-0.0315 0.0546,-0.0746 0.0945,-0.0945 0.0282,-0.0141 0.063,0 0.0945,0 0.063,-0.0315 0.13038,-0.0554 0.18899,-0.0945 0.0371,-0.0247 0.0547,-0.0746 0.0945,-0.0945 0.0891,-0.0445 0.191,-0.0575 0.28348,-0.0945 0.0654,-0.0262 0.1236,-0.0683 0.18899,-0.0945 0.0925,-0.037 0.18899,-0.063 0.28348,-0.0945 0.0945,-0.0315 0.18523,-0.0781 0.28348,-0.0945 0.0932,-0.0155 0.18899,0 0.28349,0 0.12599,-0.0315 0.25198,-0.063 0.37797,-0.0945 0.43837,-0.10959 0.87987,-0.19487 1.32292,-0.28348 0.15749,-0.0315 0.3131,-0.0746 0.47247,-0.0945 0.0938,-0.0117 0.18994,0.0134 0.28348,0 0.47916,-0.0685 0.244,-0.0598 0.56697,-0.18899 0.0925,-0.037 0.2006,-0.0392 0.28348,-0.0945 0.0262,-0.0175 -0.0223,-0.0722 0,-0.0945 0.0223,-0.0223 0.0722,0.0223 0.0945,0 0.009,-0.009 0.009,-0.27404 0,-0.28349 -0.0223,-0.0223 -0.0722,0.0223 -0.0945,0 -0.0498,-0.0498 -0.0554,-0.13038 -0.0945,-0.18898 -0.0247,-0.0371 -0.063,-0.063 -0.0945,-0.0945 -0.063,-0.063 -0.11486,-0.13957 -0.18899,-0.18899 -0.0262,-0.0175 -0.0683,0.0175 -0.0945,0 -0.0741,-0.0494 -0.10627,-0.1559 -0.18899,-0.18898 -0.0877,-0.0351 -0.19575,0.0351 -0.28348,0 -0.0827,-0.0331 -0.11772,-0.13554 -0.18899,-0.18899 -0.0564,-0.0423 -0.12599,-0.063 -0.18899,-0.0945 -0.063,-0.0315 -0.11992,-0.0807 -0.18899,-0.0945 -0.15443,-0.0309 -0.31968,0.0382 -0.47247,0 -0.0683,-0.0171 -0.11992,-0.0807 -0.18898,-0.0945 -0.0927,-0.0185 -0.18899,0 -0.28349,0 -0.18898,0 -0.37797,0 -0.56696,0 -0.47286,0 -0.95611,-0.0439 -1.41741,0.0945 -0.13492,0.0405 -0.24434,0.14444 -0.37798,0.18899 -0.32347,0.10782 -0.47308,0.0476 -0.75595,0.18899 -0.80414,0.40206 -0.21878,0.11832 -0.66146,0.47247 -0.0887,0.0709 -0.20318,0.10868 -0.28348,0.18898 -0.0498,0.0498 -0.0583,0.1286 -0.0945,0.18899 -0.0584,0.0974 -0.14681,0.17804 -0.18899,0.28348 -0.0234,0.0585 0,0.126 0,0.18899 0,0.15749 0,0.31498 0,0.47247 0,0.0945 0,0.18899 0,0.28348 0,0.0945 -0.0299,0.19384 0,0.28349 0.0359,0.10774 0.13056,0.1861 0.18899,0.28348 0.0362,0.0604 0.0447,0.13918 0.0945,0.18899 0.0803,0.0803 0.20318,0.10868 0.28348,0.18899 0.0803,0.0803 0.10174,0.21077 0.18899,0.28348 0.65903,0.32951 0.12514,0.0128 0.66146,0.47247 0.0599,0.0514 0.5418,0.41264 0.66146,0.47247 0.15171,0.0759 0.32075,0.11313 0.47247,0.18899 0.16427,0.0821 0.31672,0.18614 0.47247,0.28348 0.0963,0.0602 0.1797,0.14286 0.28348,0.18899 0.18204,0.0809 0.37975,0.12091 0.56696,0.18898 0.15941,0.058 0.31747,0.1201 0.47247,0.18899 0.12873,0.0572 0.24047,0.15843 0.37798,0.18899 0.15374,0.0342 0.31594,-0.0174 0.47247,0 0.12908,0.0143 0.24911,0.0784 0.37798,0.0945 0.12502,0.0156 0.25275,-0.0139 0.37797,0 0.15963,0.0177 0.3131,0.0746 0.47247,0.0945 0.0938,0.0117 0.18899,0 0.28348,0 0.0945,0 0.18899,0 0.28349,0 0.063,0 0.12787,0.0153 0.18898,0 0.14537,-0.0363 0.3963,-0.26371 0.47248,-0.37798 0.0175,-0.0262 -0.008,-0.0639 0,-0.0945 0.0241,-0.0966 0.063,-0.18899 0.0945,-0.28348"
       id="path5481"
       inkscape:connector-curvature="0"
       inkscape:export-xdpi="96"
       inkscape:export-ydpi="96" />
    <path
       style="fill:none;stroke:#000000;stroke-width:0.26458332px;stroke-linecap:butt;stroke-linejoin:miter;stroke-opacity:1"
       d="m 183.03497,169.24404 c -0.0309,-0.0232 -0.56276,-0.43299 -0.66146,-0.47246 -0.0585,-0.0234 -0.12599,0 -0.18899,0 -0.0945,0 -0.19181,0.0229 -0.28348,0 -0.0432,-0.0108 -0.0522,-0.0804 -0.0945,-0.0945 -0.0598,-0.0199 -0.126,0 -0.18899,0 -0.063,0 -0.126,0 -0.18899,0 -0.0225,0 -0.3568,-0.0106 -0.37798,0 -0.0797,0.0398 -0.1093,0.14915 -0.18898,0.18899 -0.0282,0.0141 -0.0722,-0.0223 -0.0945,0 -0.0498,0.0498 -0.0554,0.13039 -0.0945,0.18899 -0.0494,0.0741 -0.14915,0.1093 -0.18899,0.18898 -0.0202,0.0404 0,0.43512 0,0.47248 0,0.0657 -0.0171,0.43829 0,0.47247 0.0125,0.0251 0.25839,0.27093 0.28348,0.28348 0.0282,0.0141 0.0663,-0.0141 0.0945,0 0.0797,0.0398 0.10447,0.16081 0.18898,0.18898 0.0598,0.0199 0.12923,-0.0199 0.18899,0 0.0423,0.0141 0.0547,0.0746 0.0945,0.0945 0.005,0.003 0.44128,0.0156 0.47248,0 0.0398,-0.0199 0.0574,-0.0698 0.0945,-0.0945 0.0586,-0.0391 0.13919,-0.0447 0.18899,-0.0945 0.0498,-0.0498 0.0554,-0.13038 0.0945,-0.18899 0.0247,-0.0371 0.0678,-0.0589 0.0945,-0.0945 0.0681,-0.0908 0.12084,-0.19263 0.18898,-0.28348 0.0267,-0.0356 0.0678,-0.0589 0.0945,-0.0945 0.0681,-0.0908 0.12298,-0.19107 0.18899,-0.28348 0.0915,-0.12815 0.22966,-0.22997 0.28348,-0.37798 0.0761,-0.20931 0.0723,-0.43983 0.0945,-0.66145 0.0188,-0.18805 0,-0.37798 0,-0.56697 0,-0.40947 0,-0.81894 0,-1.22842 0,-0.61907 0.0299,0.0549 -0.0945,-0.56696 -0.0247,-0.12355 0.0247,-0.25444 0,-0.37798 -0.0391,-0.19534 -0.14992,-0.37162 -0.18899,-0.56697 -0.0124,-0.0618 0.0199,-0.12922 0,-0.18898 -0.0141,-0.0423 -0.0804,-0.0522 -0.0945,-0.0945 -0.21623,-0.64869 0.36181,0.44014 -0.0945,-0.47247 -0.0199,-0.0398 -0.0804,-0.0522 -0.0945,-0.0945 -0.0199,-0.0598 0.0123,-0.12722 0,-0.18899 -0.0543,-0.27145 -0.0483,-0.23733 -0.18899,-0.37797 -0.21286,-0.21286 0.0148,0.0594 -0.0945,-0.37798 -0.0217,-0.0867 -0.24855,-0.1657 -0.28349,-0.18899 -0.0371,-0.0247 -0.063,-0.12599 -0.0945,-0.0945 -0.0445,0.0445 0,0.12599 0,0.18898 0,0.25199 0,0.50397 0,0.75596 0,0.12599 0,0.25198 0,0.37797 0,0.0945 -0.0155,0.19028 0,0.28349 0.0164,0.0983 0.0703,0.18684 0.0945,0.28348 0.039,0.15581 0.0381,0.32208 0.0945,0.47247 0.0399,0.10633 0.14425,0.17909 0.18899,0.28348 0.39509,0.9219 -0.16749,-0.161 0.0945,0.75595 0.006,0.0212 0.36378,0.53385 0.37798,0.56697 0.0512,0.11937 0.0433,0.2586 0.0945,0.37797 0.0846,0.19732 0.29341,0.36965 0.37798,0.56697 0.0512,0.11937 0.0433,0.2586 0.0945,0.37797 0.13206,0.30815 0.26289,0.30499 0.47247,0.56697 0.044,0.055 0.0522,0.13264 0.0945,0.18898 0.0535,0.0713 0.13334,0.11942 0.18899,0.18899 0.0506,0.0633 0.17265,0.30409 0.28349,0.37798 0.0586,0.0391 0.13038,0.0554 0.18898,0.0945 0.0371,0.0247 0.0574,0.0698 0.0945,0.0945 0.0586,0.0391 0.13038,0.0554 0.18899,0.0945 0.0371,0.0247 0.0546,0.0746 0.0945,0.0945 0.0282,0.0141 0.063,0 0.0945,0 0.0315,0 0.063,0 0.0945,0"
       id="path5483"
       inkscape:connector-curvature="0"
       inkscape:export-xdpi="96"
       inkscape:export-ydpi="96" />
    <path
       style="fill:none;stroke:#000000;stroke-width:0.26458332px;stroke-linecap:butt;stroke-linejoin:miter;stroke-opacity:1"
       d="m 169.99479,184.64658 c 0.0315,0.12599 0.22048,0.34647 0.0945,0.37797 -0.12599,0.0315 -0.0945,-0.24811 -0.0945,-0.37797 0,-0.1916 0.0733,-0.37655 0.0945,-0.56697 0.0104,-0.0939 0,-0.18899 0,-0.28348 0,-0.18899 0,-0.37798 0,-0.56697 0,-0.53546 0,-1.07093 0,-1.60639 0,-0.126 0,-0.25199 0,-0.37798 0,-0.12599 0.0178,-0.25325 0,-0.37798 -0.0141,-0.0986 -0.0781,-0.18523 -0.0945,-0.28348 -0.0155,-0.0932 0,-0.18899 0,-0.28348 0,-0.0945 0,-0.18899 0,-0.28348 0,-0.0315 -0.0141,-0.0663 0,-0.0945 0.0125,-0.0251 0.25839,-0.27093 0.28348,-0.28348 0.0282,-0.0141 0.063,0 0.0945,0 0.0315,0 0.063,0 0.0945,0 0.21349,0 -0.0423,-0.0141 0.28348,0.0945 0.0299,0.01 0.0683,-0.0175 0.0945,0 0.11119,0.0741 0.18898,0.18899 0.28348,0.28349 0.063,0.063 0.14915,0.1093 0.18899,0.18898 0.0282,0.0563 -0.0282,0.13265 0,0.18899 0.0398,0.0797 0.13553,0.11772 0.18899,0.18899 0.0422,0.0564 0.063,0.12599 0.0945,0.18899 0.0945,0.18899 0.18899,0.37797 0.28348,0.56696 0.063,0.126 0.12599,0.25199 0.18899,0.37798 0.0315,0.063 0.0774,0.12066 0.0945,0.18899 0.0153,0.0611 -0.0153,0.12787 0,0.18899 -0.057,0.17102 0.15308,0.17574 0.18899,0.28348 0.0199,0.0598 0,0.12599 0,0.18898 0,0.0315 -0.0141,0.0663 0,0.0945 0.10109,0.20219 0.0879,-0.0132 0.18899,0.18899 0.0141,0.0282 -0.0223,0.0722 0,0.0945 0.0223,0.0223 0.063,0 0.0945,0 0.0315,0 0.0722,0.0223 0.0945,0 0.0223,-0.0223 -0.01,-0.0646 0,-0.0945 0.0223,-0.0668 0.063,-0.12599 0.0945,-0.18899 0.0315,-0.063 0.0522,-0.13264 0.0945,-0.18899 0.0534,-0.0713 0.1559,-0.10627 0.18898,-0.18899 0.0351,-0.0877 -0.0299,-0.19383 0,-0.28348 0.0359,-0.10774 0.126,-0.18899 0.18899,-0.28348 0.063,-0.0945 0.12599,-0.18899 0.18899,-0.28348 0.64422,-0.96633 -0.39258,0.63104 0.37798,-0.75595 0.15296,-0.27535 0.4261,-0.47423 0.56696,-0.75596 0.0581,-0.11616 0.0433,-0.2586 0.0945,-0.37797 0.0447,-0.10439 0.1382,-0.18191 0.18899,-0.28349 0.0759,-0.15171 0.11313,-0.32075 0.18899,-0.47247 0.1939,-0.38779 0.1436,-0.1795 0.37798,-0.47247 0.0709,-0.0887 0.1003,-0.21253 0.18899,-0.28348 0.0778,-0.0622 0.191,-0.0575 0.28348,-0.0945 0.0654,-0.0262 0.12066,-0.0774 0.18898,-0.0945 0.0743,-0.0186 0.4687,0 0.56697,0 0.0945,0 0.19181,-0.0229 0.28348,0 0.0432,0.0108 0.063,0.063 0.0945,0.0945 0.12599,0.12599 0.2639,0.24109 0.37797,0.37797 0.10082,0.12099 0.21305,0.23712 0.28348,0.37798 0.002,0.003 0.18426,0.74018 0.18899,0.75595 0.0444,0.14802 0.2617,0.72714 0.28348,0.94494 0.0282,0.28208 0,0.56697 0,0.85045 0,0.44097 0,0.88194 0,1.32291 0,0.0945 0,0.18899 0,0.28349 0,0.0945 0.0155,0.19027 0,0.28348 -0.0164,0.0983 -0.075,0.18581 -0.0945,0.28348 -0.0185,0.0927 0,0.18899 0,0.28348 0,0.0945 0,0.18899 0,0.28349 0,0.0315 0.0315,0.0945 0,0.0945 -0.0315,0 0,-0.063 0,-0.0945"
       id="path5485"
       inkscape:connector-curvature="0"
       inkscape:export-xdpi="96"
       inkscape:export-ydpi="96" />
    <path
       style="fill:none;stroke:#000000;stroke-width:0.26458332px;stroke-linecap:butt;stroke-linejoin:miter;stroke-opacity:1"
       d="m 179.91666,180.77232 c 0.41481,0.44261 0.0166,0.95033 0.0945,1.41741 0.0164,0.0983 0.0835,0.18448 0.0945,0.28348 0.0209,0.18783 0,0.37798 0,0.56697 0,0.44097 0,0.88194 0,1.32291"
       id="path5487"
       inkscape:connector-curvature="0"
       inkscape:export-xdpi="96"
       inkscape:export-ydpi="96" />
    <path
       style="fill:none;stroke:#000000;stroke-width:0.26458332px;stroke-linecap:butt;stroke-linejoin:miter;stroke-opacity:1"
       d="m 179.4442,177.65402 c 0,0.22048 0,0.44097 0,0.66145 0,0.0315 -0.0223,0.0722 0,0.0945 0.0133,0.0133 0.26409,0.01 0.28348,0 0.0398,-0.0199 0.0547,-0.0746 0.0945,-0.0945 0.25198,0 -0.0315,0.0315 0.0945,-0.0945 0.0223,-0.0223 0.0722,0.0223 0.0945,0 0.0223,-0.0223 0,-0.063 0,-0.0945 0,-0.0315 -0.0223,-0.0722 0,-0.0945 0.0223,-0.0223 0.0722,0.0223 0.0945,0 0.0223,-0.0223 -0.0141,-0.0663 0,-0.0945 0.0199,-0.0398 0.0746,-0.0547 0.0945,-0.0945 0.0106,-0.0212 0,-0.35552 0,-0.37797 0,-0.0426 0.0144,-0.25473 0,-0.28349 -0.0199,-0.0398 -0.0547,-0.0746 -0.0945,-0.0945 -0.0105,-0.005 -0.46192,-0.005 -0.47247,0 -0.0398,0.0199 -0.0746,0.0546 -0.0945,0.0945 -0.0141,0.0282 0.006,0.0636 0,0.0945 -0.0255,0.12735 -0.063,0.25198 -0.0945,0.37798 z"
       id="path5491"
       inkscape:connector-curvature="0"
       inkscape:export-xdpi="96"
       inkscape:export-ydpi="96" />
    <path
       style="fill:none;stroke:#000000;stroke-width:0.26458332px;stroke-linecap:butt;stroke-linejoin:miter;stroke-opacity:1"
       d="m 182.37351,176.14211 c -0.0447,0.0103 0.0309,0.66321 0,0.75595 -0.0223,0.0668 -0.0722,0.12217 -0.0945,0.18899 -0.01,0.0299 0,0.063 0,0.0945 0,0.0945 0,0.18899 0,0.28349 0,0.25198 0,0.50397 0,0.75595 0,0.0945 0.0155,0.19027 0,0.28348 -0.0164,0.0983 -0.0781,0.18523 -0.0945,0.28348 -0.0155,0.0932 0,0.18899 0,0.28349 0,0.28348 0,0.56696 0,0.85044 0,0.69296 0,1.38592 0,2.07887 0,0.25199 0,0.50397 0,0.75595 0,0.0945 0,0.18899 0,0.28349 0,0.0315 -0.0141,0.0663 0,0.0945 0.0199,0.0398 0.063,0.063 0.0945,0.0945 0,0.063 -0.0199,0.12923 0,0.18899 0.0141,0.0423 0.0746,0.0547 0.0945,0.0945 0.0187,0.0375 -0.0193,0.26416 0,0.28348 0.0223,0.0223 0.063,0 0.0945,0 0.0347,0 0.37418,0.004 0.37798,0 0.0223,-0.0223 0,-0.063 0,-0.0945 0.063,-0.0315 0.12599,-0.063 0.18899,-0.0945"
       id="path5493"
       inkscape:connector-curvature="0"
       inkscape:export-xdpi="96"
       inkscape:export-ydpi="96" />
    <path
       style="fill:none;stroke:#000000;stroke-width:0.26458332px;stroke-linecap:butt;stroke-linejoin:miter;stroke-opacity:1"
       d="m 185.39732,175.85863 c 0,1.19692 0,2.39385 0,3.59077 0,0.78745 0,1.5749 0,2.36235 0,0.69296 0,1.38592 0,2.07887 0,0.0446 0.004,0.46819 0,0.47247 -0.008,0.008 -0.28106,0.005 -0.28348,0 -0.0282,-0.0563 0.0199,-0.12922 0,-0.18899 -0.0141,-0.0423 -0.0746,-0.0547 -0.0945,-0.0945 -0.0217,-0.0435 0,-0.46903 0,-0.56696 0,-0.34648 0,-0.69296 0,-1.03944 0,-0.0945 -0.0229,-0.19181 0,-0.28348 0.0108,-0.0432 0.063,-0.063 0.0945,-0.0945 0.0315,-0.063 0.0774,-0.12066 0.0945,-0.18899 0.0153,-0.0611 -0.0282,-0.13264 0,-0.18899 0.0945,-0.18899 0.18899,-0.14174 0.28348,-0.28348 0.0391,-0.0586 0.0522,-0.13265 0.0945,-0.18899 0.0794,-0.10584 0.2041,-0.17765 0.28348,-0.28348 0.0681,-0.0909 0.10868,-0.20318 0.18899,-0.28348 0.0498,-0.0498 0.14673,-0.0382 0.18899,-0.0945 0.0598,-0.0797 0.0347,-0.2038 0.0945,-0.28348 0.0423,-0.0563 0.13919,-0.0447 0.18899,-0.0945 0.0498,-0.0498 0.0522,-0.13264 0.0945,-0.18898 0.0534,-0.0713 0.12599,-0.12599 0.18899,-0.18899 0.0315,-0.0315 0.0522,-0.0804 0.0945,-0.0945 0.0598,-0.0199 0.12923,0.0199 0.18899,0 0.0423,-0.0141 0.0522,-0.0804 0.0945,-0.0945 0.0598,-0.0199 0.12599,0 0.18899,0 0.063,0 0.12599,0 0.18898,0 0.28348,0 0.56697,0 0.85045,0 0.85506,0 -0.30367,-0.0299 0.56696,0.0945 0.12473,0.0178 0.25199,0 0.37798,0 0.0945,0 0.18899,0 0.28348,0 0.0315,0 0.0646,-0.01 0.0945,0 0.0668,0.0223 0.12217,0.0722 0.18898,0.0945 0.0299,0.01 0.0722,-0.0223 0.0945,0 0.0223,0.0223 0.0282,0.0804 0,0.0945 -0.18899,0.0945 -0.14174,-0.0473 -0.28348,0 -0.0668,0.0223 -0.11993,0.0807 -0.18899,0.0945 -0.95772,0.19154 0.41187,-0.23179 -0.56697,0.0945 -0.77693,0.25898 0.19921,-0.0332 -0.56696,0.0945 -0.0983,0.0164 -0.18581,0.075 -0.28348,0.0945 -0.0618,0.0124 -0.12722,-0.0124 -0.18899,0 -0.0977,0.0195 -0.18899,0.063 -0.28348,0.0945 -0.0945,0.0315 -0.191,0.0575 -0.28348,0.0945 -0.13079,0.0523 -0.24719,0.13667 -0.37798,0.18899 -0.19209,0.0768 -0.30627,0.0782 -0.47247,0.18898 -0.11119,0.0741 -0.17658,0.20331 -0.28348,0.28348 -0.0564,0.0423 -0.13039,0.0554 -0.18899,0.0945 -0.0371,0.0247 -0.0574,0.0698 -0.0945,0.0945 -0.0586,0.0391 -0.13918,0.0447 -0.18898,0.0945 -0.0223,0.0223 0.0141,0.0663 0,0.0945 -0.0399,0.0797 -0.14915,0.10931 -0.18899,0.18899 -0.0141,0.0282 0,0.063 0,0.0945 0,0.0315 0,0.063 0,0.0945 0,0.0652 -0.0144,0.34924 0,0.37797 0.0199,0.0399 0.063,0.063 0.0945,0.0945 0.0315,0.0315 0.0574,0.0698 0.0945,0.0945 0.0586,0.0391 0.13038,0.0554 0.18898,0.0945 0.0371,0.0247 0.0574,0.0698 0.0945,0.0945 0.17445,0.1163 0.39251,0.16718 0.56696,0.28348 0.0371,0.0247 0.0546,0.0746 0.0945,0.0945 0.0891,0.0445 0.191,0.0575 0.28348,0.0945 0.0654,0.0262 0.12066,0.0774 0.18899,0.0945 0.0611,0.0153 0.12721,-0.0123 0.18899,0 0.0977,0.0195 0.18898,0.063 0.28348,0.0945 0.0945,0.0315 0.18898,0.063 0.28348,0.0945 0.0945,0.0315 0.18523,0.0781 0.28348,0.0945 0.0932,0.0155 0.19082,-0.0185 0.28348,0 0.13813,0.0276 0.23985,0.16136 0.37798,0.18898 0.0927,0.0185 0.19082,-0.0185 0.28348,0 0.0691,0.0138 0.12217,0.0722 0.18899,0.0945 0.0299,0.01 0.0646,-0.01 0.0945,0 0.0668,0.0223 0.12217,0.0722 0.18899,0.0945 0.0299,0.01 0.0663,-0.0141 0.0945,0 0.23353,0.11677 -0.0326,0.0945 0.18898,0.0945"
       id="path5495"
       inkscape:connector-curvature="0"
       inkscape:export-xdpi="96"
       inkscape:export-ydpi="96" />
  </g>
</svg>
